HIERARCHY
ROOT Hips
{
	OFFSET 0.00 0.00 0.00
	CHANNELS 6 Xposition Yposition Zposition Xrotation Yrotation Zrotation
	JOINT Spine
	{
		OFFSET 0.00000 5.01565 0.00000
		CHANNELS 3 Xrotation Yrotation Zrotation
		JOINT Head
		{
			OFFSET 0.00000 15.98052 0.00000
			CHANNELS 3 Xrotation Yrotation Zrotation
			End Site
			{
				OFFSET 0.00000 4.52755 0.00000
			}
		}
		JOINT LeftShoulder
		{
			OFFSET 0.00000 12.16271 0.00000
			CHANNELS 3 Xrotation Yrotation Zrotation
			JOINT LeftArm
			{
				OFFSET 7.20587 0.00000 0.00000
				CHANNELS 3 Xrotation Yrotation Zrotation
				JOINT LeftForeArm
				{
					OFFSET 10.78671 0.00000 0.00000
					CHANNELS 3 Yrotation Zrotation Xrotation
					JOINT LeftHand
					{
						OFFSET 7.94603 0.00000 0.00000
						CHANNELS 3 Xrotation Yrotation Zrotation
						JOINT LeftHandThumb1
						{
							OFFSET 0.00000 0.00000 0.00000
							CHANNELS 3 Xrotation Zrotation Yrotation
							End Site
							{
								OFFSET 0.00000 0.00000 3.93700
							}
						}
						End Site
						{
							OFFSET 3.93700 0.00000 0.00000
						}
					}
				}
			}
		}
		JOINT RightShoulder
		{
			OFFSET 0.00000 12.16271 0.00000
			CHANNELS 3 Xrotation Yrotation Zrotation
			JOINT RightArm
			{
				OFFSET -7.20587 0.00000 0.00000
				CHANNELS 3 Xrotation Yrotation Zrotation
				JOINT RightForeArm
				{
					OFFSET -10.78671 0.00000 0.00000
					CHANNELS 3 Yrotation Zrotation Xrotation
					JOINT RightHand
					{
						OFFSET -7.94603 0.00000 0.00000
						CHANNELS 3 Xrotation Yrotation Zrotation
						JOINT RightHandThumb1
						{
							OFFSET 0.00000 0.00000 0.00000
							CHANNELS 3 Xrotation Zrotation Yrotation
							End Site
							{
								OFFSET 0.00000 0.00000 3.93700
							}
						}
						End Site
						{
							OFFSET -3.93700 0.00000 0.00000
						}
					}
				}
			}
		}
	}
	JOINT LeftUpLeg
	{
		OFFSET 4.27514 0.00000 0.00000
		CHANNELS 3 Xrotation Yrotation Zrotation
		JOINT LeftLeg
		{
			OFFSET 0.00000 -17.04666 0.00000
			CHANNELS 3 Xrotation Yrotation Zrotation
			JOINT LeftFoot
			{
				OFFSET 0.00000 -17.45844 0.00000
				CHANNELS 3 Xrotation Yrotation Zrotation
				JOINT LeftToeBase
				{
					OFFSET 0.00000 -1.31982 4.92565
					CHANNELS 3 Xrotation Yrotation Zrotation
					End Site
					{
						OFFSET 0.00000 0.00000 2.95275
					}
				}
			}
		}
	}
	JOINT RightUpLeg
	{
		OFFSET -4.27514 0.00000 0.00000
		CHANNELS 3 Xrotation Yrotation Zrotation
		JOINT RightLeg
		{
			OFFSET 0.00000 -17.04666 0.00000
			CHANNELS 3 Xrotation Yrotation Zrotation
			JOINT RightFoot
			{
				OFFSET 0.00000 -17.45844 0.00000
				CHANNELS 3 Xrotation Yrotation Zrotation
				JOINT RightToeBase
				{
					OFFSET 0.00000 -1.31982 4.92565
					CHANNELS 3 Xrotation Yrotation Zrotation
					End Site
					{
						OFFSET 0.00000 0.00000 2.95275
					}
				}
			}
		}
	}
}
MOTION
Frames: 20
Frame Time: 0.008333
 -4.8335 35.4793 -10.9597 9.6742 -5.6730 2.0404 -15.0805 -12.0684 -0.4185 3.7202 15.6671 12.9381 -6.8042 30.0343 13.4842 -55.0123 -1.5043 -12.5265 -8.5415 -0.0000 4.1595 -0.0146 -0.3726 -2.2472 33.1476 -0.0000 26.2537 -18.7401 2.8089 -11.1519 -33.5493 -0.6824 16.4421 11.7923 -0.0000 57.8480 -0.0160 0.1064 8.5283 32.8623 0.0000 -24.3270 -1.8786 15.2985 -0.0797 -3.4222 0.0000 -0.0000 -19.8069 27.6032 -3.7250 25.6626 0.0000 -0.0000 -3.6019 -13.4687 -4.4374 -6.1378 0.0000 -0.0000 -16.5771 -25.0030 -2.3530 27.3741 0.0000 0.0000
 -4.8364 35.4775 -10.9672 9.6656 -5.6808 2.0451 -15.0291 -12.0397 -0.4123 3.9327 15.6575 12.8099 -6.5923 30.3247 13.1637 -54.9316 -1.0518 -12.6739 -10.3015 -0.0000 2.1281 -0.0249 -0.9240 -1.5443 33.1476 -0.0000 26.2537 -18.6824 2.7462 -11.2059 -33.5699 -0.9459 16.6262 12.0271 -0.0000 57.6436 -0.0153 0.1059 8.2198 32.8623 0.0000 -24.3270 -1.8839 15.2743 -0.0758 -3.4151 -0.0000 0.0000 -19.8281 27.6062 -3.6708 25.6779 -0.0000 -0.0000 -3.5974 -13.4348 -4.4363 -6.1485 -0.0000 -0.0000 -16.5884 -25.0088 -2.4028 27.3533 -0.0000 -0.0000
 -4.8401 35.4756 -10.9754 9.6611 -5.6786 2.0365 -14.9808 -12.0364 -0.3946 4.1710 15.6874 12.6721 -6.3351 30.6778 12.8136 -54.8385 -0.6985 -12.8782 -11.9610 -0.0000 0.3886 -0.0165 -1.2932 -0.7318 33.1476 -0.0000 26.2537 -18.6575 2.7032 -11.2654 -33.5594 -1.2281 16.8318 12.2704 -0.0000 57.4535 -0.0248 0.1822 7.7592 32.8623 0.0000 -24.3270 -1.9050 15.2787 -0.0663 -3.4059 0.0000 0.0000 -19.8791 27.6476 -3.6226 25.7623 0.0000 -0.0000 -3.5716 -13.3298 -4.4248 -6.1855 -0.0000 -0.0000 -16.5993 -25.0770 -2.4492 27.4042 0.0000 0.0000
 -4.8431 35.4735 -10.9839 9.6539 -5.6822 2.0451 -14.9411 -12.0076 -0.4216 4.4558 15.7383 12.5838 -6.0945 31.0357 12.4983 -54.7813 -0.3106 -13.1312 -13.8295 -0.0000 -0.9996 0.0056 -1.4743 0.2170 33.1476 -0.0000 26.2537 -18.6092 2.6409 -11.3175 -33.6096 -1.5670 17.0901 12.5978 -0.0000 57.2962 -0.0033 0.0250 7.4592 32.8623 0.0000 -24.3270 -1.9129 15.2847 -0.0705 -3.4017 -0.0000 -0.0000 -19.8926 27.6444 -3.5799 25.7692 -0.0000 -0.0000 -3.5748 -13.3238 -4.4292 -6.1926 -0.0000 -0.0000 -16.6459 -25.0551 -2.5389 27.5125 0.0000 -0.0000
 -4.8476 35.4714 -10.9912 9.6379 -5.6813 2.0489 -14.8974 -11.9550 -0.4428 4.7574 15.6732 12.4459 -5.9432 31.3275 12.2356 -54.4974 0.0674 -13.3765 -15.7158 -0.0000 -2.4761 0.0439 -1.8652 1.3474 33.1476 -0.0000 26.2537 -18.5397 2.5679 -11.3635 -33.6302 -1.9125 17.2892 12.9064 -0.0000 57.0393 -0.0082 0.0651 7.1494 32.8623 0.0000 -24.3270 -1.9110 15.2552 -0.0545 -3.3901 -0.0000 -0.0000 -19.8805 27.5803 -3.5421 25.6875 -0.0000 0.0000 -3.5666 -13.3369 -4.4255 -6.1994 0.0000 -0.0000 -16.6722 -25.0119 -2.6052 27.5365 -0.0000 0.0000
 -4.8493 35.4692 -10.9985 9.6312 -5.6783 2.0592 -14.8643 -11.9187 -0.4559 5.0952 15.6294 12.2797 -5.6734 31.6315 11.8805 -54.4158 0.4866 -13.5961 -17.7084 -0.0000 -3.5924 0.1067 -2.6284 2.3260 33.1476 -0.0000 26.2537 -18.4430 2.4991 -11.4306 -33.7091 -2.2757 17.5269 13.2246 -0.0000 56.7978 -0.0056 0.0474 6.7904 32.8623 0.0000 -24.3270 -1.9167 15.2518 -0.0621 -3.3846 -0.0000 -0.0000 -19.9015 27.5769 -3.5010 25.7201 0.0000 -0.0000 -3.5894 -13.4016 -4.4345 -6.1790 0.0000 0.0000 -16.7105 -24.9290 -2.6399 27.5933 -0.0000 0.0000
 -4.8524 35.4676 -11.0080 9.6206 -5.6716 2.0659 -14.8392 -11.8700 -0.4788 5.5074 15.5806 12.1157 -5.4388 31.8914 11.5787 -54.3570 0.8961 -13.8197 -19.6834 -0.0000 -4.6384 0.1375 -2.2734 3.4626 33.1476 -0.0000 26.2537 -18.3388 2.4400 -11.4329 -33.7117 -2.5953 17.6728 13.5196 -0.0000 56.4659 -0.0192 0.1686 6.5004 32.8623 0.0000 -24.3270 -1.9224 15.2607 -0.0734 -3.3904 -0.0000 -0.0000 -19.9289 27.6192 -3.4682 25.8162 0.0000 -0.0000 -3.5848 -13.4247 -4.4330 -6.1974 -0.0000 0.0000 -16.6983 -24.9169 -2.6441 27.5310 -0.0000 -0.0000
 -4.8571 35.4658 -11.0169 9.6172 -5.6573 2.0695 -14.8276 -11.8210 -0.5062 5.9329 15.5074 11.9473 -5.2821 32.1400 11.3765 -54.3502 1.4008 -14.1117 -21.6861 -0.0000 -5.1104 0.2112 -2.7075 4.4620 33.1476 -0.0000 26.2537 -18.2223 2.3613 -11.4467 -33.7700 -2.9173 17.8452 13.7784 -0.0000 56.2017 -0.0303 0.2739 6.3180 32.8623 0.0000 -24.3270 -1.9430 15.2316 -0.0563 -3.3709 -0.0000 -0.0000 -19.9257 27.5565 -3.4271 25.7782 0.0000 -0.0000 -3.5783 -13.4051 -4.4289 -6.2182 -0.0000 -0.0000 -16.7212 -24.9258 -2.7053 27.5328 0.0000 0.0000
 -4.8606 35.4639 -11.0260 9.6160 -5.6510 2.0722 -14.8212 -11.7449 -0.5382 6.3803 15.4525 11.7990 -5.0924 32.3546 11.1395 -53.9374 1.7977 -14.3069 -23.7910 -0.0000 -5.5600 0.2736 -2.8176 5.5488 33.1476 -0.0000 26.2537 -18.1169 2.2566 -11.4638 -33.7510 -3.2109 18.0646 14.0488 -0.0000 55.8928 -0.0291 0.2744 6.0483 32.8623 0.0000 -24.3270 -1.9625 15.2338 -0.0499 -3.3614 0.0000 -0.0000 -19.9324 27.5288 -3.3837 25.7889 0.0000 0.0000 -3.5783 -13.4007 -4.4267 -6.2369 0.0000 -0.0000 -16.7612 -24.8905 -2.7938 27.6826 0.0000 -0.0000
 -4.8621 35.4626 -11.0355 9.6301 -5.6711 2.0608 -14.8268 -11.6802 -0.5315 6.8600 15.4129 11.6029 -4.9750 32.5347 11.0031 -53.6251 2.3570 -14.5148 -25.8978 -0.0000 -5.7734 0.3424 -3.0013 6.5121 33.1476 -0.0000 26.2537 -18.0066 2.1782 -11.4815 -33.7374 -3.4998 18.3000 14.3252 -0.0000 55.6492 -0.0235 0.2324 5.7695 32.8623 0.0000 -24.3270 -1.9921 15.2772 -0.0439 -3.3717 -0.0000 -0.0000 -19.9793 27.5737 -3.3472 25.8887 -0.0000 -0.0000 -3.6065 -13.3630 -4.4099 -6.2300 0.0000 0.0000 -16.7634 -24.9036 -2.8092 27.6511 -0.0000 -0.0000
 -4.8645 35.4612 -11.0442 9.6070 -5.6682 2.0549 -14.8036 -11.6092 -0.5615 7.3846 15.3849 11.4592 -4.7600 32.6926 10.8265 -53.5073 2.9291 -14.7336 -27.9535 -0.0000 -5.8066 0.3729 -2.9127 7.2997 33.1476 -0.0000 26.2537 -17.9015 2.0877 -11.4442 -33.6983 -3.7535 18.4819 14.5717 -0.0000 55.4092 -0.0231 0.2405 5.4815 32.8623 0.0000 -24.3270 -1.9865 15.2860 -0.0357 -3.3738 -0.0000 0.0000 -19.9950 27.5534 -3.2902 25.9007 -0.0000 0.0000 -3.5867 -13.3341 -4.4048 -6.2383 0.0000 0.0000 -16.7751 -24.9046 -2.8312 27.7127 -0.0000 -0.0000
 -4.8683 35.4599 -11.0531 9.5895 -5.6603 2.0478 -14.7863 -11.5583 -0.6041 7.9139 15.4108 11.3189 -4.5483 32.9084 10.7176 -53.2198 3.4056 -14.9928 -29.7901 -0.0000 -6.2532 0.4208 -3.0668 7.8164 33.1476 -0.0000 26.2537 -17.7693 1.9816 -11.4180 -33.6578 -4.0368 18.7244 14.9053 -0.0000 55.1048 -0.0192 0.2089 5.2530 32.8623 0.0000 -24.3270 -1.9942 15.2676 -0.0209 -3.3607 0.0000 -0.0000 -20.0079 27.5512 -3.2424 25.9104 -0.0000 0.0000 -3.5777 -13.3343 -4.3929 -6.2384 -0.0000 -0.0000 -16.7645 -24.8999 -2.8304 27.6023 -0.0000 -0.0000
 -4.8716 35.4593 -11.0631 9.5541 -5.6531 2.0415 -14.7522 -11.4655 -0.6379 8.4802 15.3845 11.1489 -4.3315 32.9875 10.5545 -52.9455 3.8753 -15.1357 -31.5149 -0.0000 -6.6804 0.4859 -3.2451 8.5208 33.1476 -0.0000 26.2537 -17.6501 1.8893 -11.3712 -33.6561 -4.3693 18.8848 15.2652 -0.0000 54.8529 -0.0264 0.2895 5.2058 32.8623 0.0000 -24.3270 -1.9869 15.2487 0.0005 -3.3392 -0.0000 0.0000 -19.9988 27.4808 -3.2269 25.8899 0.0000 0.0000 -3.5548 -13.3177 -4.3858 -6.2348 0.0000 0.0000 -16.7950 -24.8951 -2.9011 27.7187 0.0000 -0.0000
 -4.8740 35.4586 -11.0750 9.5034 -5.6465 2.0337 -14.6822 -11.3767 -0.6807 9.0393 15.3659 11.0083 -4.2230 33.0648 10.4935 -52.5430 4.3765 -15.3057 -33.2613 -0.0000 -7.2921 0.5301 -3.2377 9.3034 33.1476 -0.0000 26.2537 -17.4895 1.7796 -11.3591 -33.5813 -4.7315 19.1234 15.7296 -0.0000 54.5107 -0.0223 0.2559 4.9887 32.8623 0.0000 -24.3270 -1.9661 15.2483 0.0016 -3.3330 -0.0000 0.0000 -20.0271 27.5272 -3.1645 25.9445 -0.0000 0.0000 -3.5300 -13.3213 -4.3824 -6.2148 0.0000 -0.0000 -16.8221 -24.8809 -2.9527 27.7569 -0.0000 0.0000
 -4.8790 35.4581 -11.0844 9.4443 -5.6144 2.0219 -14.6267 -11.3337 -0.7457 9.6323 15.4180 10.8986 -4.0963 33.1392 10.4557 -52.1551 4.8915 -15.4687 -34.9400 -0.0000 -8.0332 0.6393 -3.5656 10.1716 33.1476 -0.0000 26.2537 -17.3246 1.7095 -11.3206 -33.4416 -5.1375 19.3759 16.2762 -0.0000 54.0224 -0.0154 0.1865 4.7304 32.8623 0.0000 -24.3270 -1.9472 15.2102 0.0213 -3.3004 -0.0000 -0.0000 -20.0424 27.5144 -3.1232 25.9662 0.0000 -0.0000 -3.4823 -13.3458 -4.3707 -6.2078 -0.0000 -0.0000 -16.8356 -24.8707 -2.9745 27.7512 0.0000 -0.0000
 -4.8837 35.4584 -11.0942 9.3716 -5.5664 2.0035 -14.5531 -11.2882 -0.7963 10.2557 15.4686 10.7539 -3.9777 33.1544 10.4218 -51.6713 5.4485 -15.5892 -36.6869 -0.0000 -8.5393 0.6684 -3.4138 11.0855 33.1476 -0.0000 26.2537 -17.0757 1.6281 -11.2437 -33.2619 -5.5032 19.5411 16.8586 -0.0000 53.4334 -0.0108 0.1369 4.5193 32.8623 0.0000 -24.3270 -1.9190 15.1614 0.0434 -3.2722 -0.0000 0.0000 -20.0497 27.5213 -3.1089 25.9739 0.0000 -0.0000 -3.4179 -13.3839 -4.3548 -6.2023 0.0000 -0.0000 -16.8467 -24.8746 -2.9988 27.7577 -0.0000 0.0000
 -4.8888 35.4583 -11.1048 9.2923 -5.5370 1.9902 -14.4556 -11.2110 -0.8664 10.8410 15.4749 10.6514 -3.8416 33.1895 10.3809 -51.4176 5.9658 -15.7426 -38.3141 -0.0000 -8.7249 0.6948 -3.3212 11.8224 33.1476 -0.0000 26.2537 -16.8476 1.5163 -11.1714 -33.0537 -5.9138 19.7675 17.5234 -0.0000 52.8151 -0.0071 0.0968 4.2256 32.8623 0.0000 -24.3270 -1.8765 15.1364 0.0616 -3.2520 0.0000 0.0000 -20.0440 27.5077 -3.1032 25.9536 -0.0000 -0.0000 -3.3578 -13.3880 -4.3439 -6.1787 -0.0000 -0.0000 -16.8467 -24.8858 -2.9986 27.6578 0.0000 -0.0000
 -4.8914 35.4591 -11.1162 9.2103 -5.5118 1.9693 -14.3518 -11.1212 -0.9104 11.4708 15.4928 10.5256 -3.6396 33.2285 10.2644 -51.2556 6.4483 -15.8986 -39.8353 -0.0000 -8.9203 0.7398 -3.3286 12.5378 33.1476 -0.0000 26.2537 -16.5223 1.3462 -11.1019 -32.9727 -6.3116 20.0137 18.2565 -0.0000 52.2894 -0.0122 0.1754 3.9666 32.8623 0.0000 -24.3270 -1.8385 15.1155 0.0828 -3.2255 -0.0000 -0.0000 -20.0540 27.4996 -3.0892 25.9965 0.0000 -0.0000 -3.2991 -13.3877 -4.3322 -6.1531 0.0000 -0.0000 -16.8729 -24.8996 -3.0474 27.7867 -0.0000 0.0000
 -4.8948 35.4599 -11.1300 9.1142 -5.5084 1.9547 -14.2178 -11.0316 -0.9583 12.0757 15.5706 10.3997 -3.4858 33.2975 10.1979 -51.0583 6.9379 -16.0887 -41.3275 -0.0000 -9.1219 0.7742 -3.2318 13.4798 33.1476 -0.0000 26.2537 -16.1489 1.1738 -10.9688 -32.8856 -6.6374 20.2248 18.9868 -0.0000 51.6724 -0.0068 0.1064 3.6602 32.8623 0.0000 -24.3270 -1.7856 15.0487 0.1135 -3.1895 -0.0000 0.0000 -20.0542 27.4689 -3.0211 25.9752 -0.0000 0.0000 -3.2460 -13.3659 -4.3241 -6.1036 0.0000 -0.0000 -16.9027 -24.9092 -3.0956 27.7893 0.0000 -0.0000
 -4.8986 35.4605 -11.1453 9.0246 -5.4583 1.9351 -14.0795 -10.9824 -1.0202 12.6626 15.6409 10.3095 -3.3756 33.3317 10.1887 -50.8239 7.4762 -16.2720 -42.7739 -0.0000 -9.4202 0.7940 -3.1802 14.0264 33.1476 -0.0000 26.2537 -15.8468 0.9805 -10.8453 -32.7121 -6.9770 20.4981 19.7679 -0.0000 51.1486 -0.0082 0.1425 3.2812 32.8623 0.0000 -24.3270 -1.7624 14.9806 0.1385 -3.1269 0.0000 -0.0000 -20.0922 27.4746 -2.9734 26.0785 -0.0000 0.0000 -3.1949 -13.3968 -4.3109 -6.0574 0.0000 0.0000 -16.9236 -24.9126 -3.1366 27.7537 -0.0000 0.0000
